<svg height="512" viewBox="0 0 58 58" width="512" xmlns="http://www.w3.org/2000/svg"><g id="027---Fishing-Boat" fill="none"><path id="Shape" d="m44 23c-.2560877.0016723-.5030575-.094968-.69-.27l-19-18c-.4031679-.38107648-.4210765-1.01683212-.04-1.41999999.3810765-.40316786 1.0168321-.42107647 1.42-.04000001l19 18c.3005265.2813438.3979309.7181101.2454225 1.1004864-.1525085.3823764-.5237635.6322207-.9354225.6295136z" fill="#35495e"/><path id="Shape" d="m24 37c-.5522847 0-1-.4477153-1-1v-31c0-.55228475.4477153-1 1-1s1 .44771525 1 1v31c0 .5522847-.4477153 1-1 1z" fill="#35495e"/><path id="Shape" d="m56 37c-.5522847 0-1-.4477153-1-1v-6c0-.5522847-.4477153-1-1-1h-6c-.5522847 0-1-.4477153-1-1s.4477153-1 1-1h6c1.6568542 0 3 1.3431458 3 3v6c0 .5522847-.4477153 1-1 1z" fill="#95a5a5"/><path id="Shape" d="m58 36v2c0 1.1045695-.8954305 2-2 2h-4v11l-38 3-10.61-7.57s-3.25-13.75-3.26-13.8c-.20087894-.6050354-.10128155-1.2695901.26814204-1.7891538.36942358-.5195636.96441005-.8318835 1.60185796-.8408462h10.48c1.0764759-.0088907 2.1110953.4164929 2.87 1.18l2.65 2.65c.740959.7402249 1.7426895 1.1603054 2.79 1.17h36.21c.5522847 0 1 .4477153 1 1z" fill="#955ba5"/><path id="Shape" d="m30 21h15c2.209139 0 4 1.790861 4 4v10h-20v-13c0-.5522847.4477153-1 1-1z" fill="#547580"/><path id="Shape" d="m29 25h4c1.1045695 0 2 .8954305 2 2v2c0 1.1045695-.8954305 2-2 2h-4z" fill="#2fa8cc"/><path id="Shape" d="m41 25h2c1.1045695 0 2 .8954305 2 2v8h-6v-8c0-1.1045695.8954305-2 2-2z" fill="#2c3e50"/><circle id="Oval" cx="24" cy="3" fill="#95a5a5" r="3"/><path id="Shape" d="m12 34c0 .5522847-.4477153 1-1 1h-10.31l-.47-2h10.78c.5522847 0 1 .4477153 1 1z" fill="#894b9d"/><path id="Shape" d="m58 46v10c-4.84 0-4.84 2-9.67 2s-4.84-2-9.67-2-4.83 2-9.66 2-4.83-2-9.66-2-4.84 2-9.67 2-4.84-2-9.67-2v-10c4.83 0 4.83 2 9.66 2s4.83-2 9.67-2 4.83 2 9.66 2 4.84-2 9.67-2 4.83 2 9.67 2 4.83-2 9.67-2z" fill="#2fa8cc"/><path id="Shape" d="m58 50v2c-4.49 0-4.66 2-9.67 2s-5.18-2-9.67-2-4.66 2-9.66 2c-1.7963054.0420506-3.5784265-.3273719-5.21-1.08-1.3970232-.6428683-2.9226184-.9575651-4.46-.92-4.54 0-4.62 2-9.67 2-4.82 0-5.29-2-9.66-2v-2c5 0 5.13 2 9.66 2s4.66-2 9.67-2c4.82 0 5.29 2 9.66 2s4.66-2 9.67-2 5.16 2 9.67 2 4.67-2 9.67-2z" fill="#3b97d3"/><path id="Shape" d="m52 40v2h-26c-.5522847 0-1-.4477153-1-1s.4477153-1 1-1z" fill="#894b9d"/></g></svg>