<svg id="Layer_1" enable-background="new 0 0 503.616 503.616" height="512" viewBox="0 0 503.616 503.616" width="512" xmlns="http://www.w3.org/2000/svg"><path d="m5.272 500.462 310.75-497c5.141-8.222 17.861-.27 12.719 7.952l-307.11 491.179" fill="#966a50"/><path d="m482.428 503.508-307.567-492.078c-5.141-8.222 7.577-16.175 12.719-7.952l310.75 497" fill="#966a50"/><path d="m500.308 503.616-248.5-397.44-248.5 397.44z" fill="#fee8c1"/><path d="m251.808 106.176-19.25 30.787 229.25 366.653h38.5z" fill="#feda9b"/><path d="m94.502 463.116h39.777 39.777 155.504 39.777 39.777 39.777 26.095l-22.51-36h-401.336l-22.509 36h26.094z" fill="#ff8370"/><path d="m452.476 427.116h-39.331l21.663 36h14.083 26.095z" fill="#ff624a"/><path d="m429.967 391.116h-356.318l-22.509 36h401.336z" fill="#fcb429"/><path d="m429.967 391.116h-39.159l22.337 36h39.331z" fill="#eba41c"/><path d="m217.475 222.116c9.652 0 9.668-15 0-15-9.652 0-9.668 15 0 15z"/><path d="m251.808 222.116c9.652 0 9.668-15 0-15-9.652 0-9.668 15 0 15z"/><path d="m286.141 222.116c9.652 0 9.668-15 0-15-9.651 0-9.667 15 0 15z"/><path d="m28.631 463.116-25.323 40.5h51.417v-40.5z" fill="#fcb429"/><path d="m140.808 351.116c16.845 0 30.5-13.655 30.5-30.5s-13.655-30.5-30.5-30.5h-4.009l-24.991 40c3.996 12.313 16.052 21 29 21z" fill="#ff8370"/><path d="m297.414 179.116h-91.212l-44.393 71h179.998z" fill="#966a50"/><path d="m302.869 250.116h38.938l-44.393-71h-38.74z" fill="#8a583a"/><path d="m409.114 463.116h39.777v40.5h-39.777z" fill="#fee8c1"/><path d="m329.56 463.116h39.777v40.5h-39.777z" fill="#fee8c1"/><path d="m369.337 463.116h39.777v40.5h-39.777z" fill="#966a50"/><path d="m474.986 463.116h-26.095v40.5h51.417z" fill="#fcb429"/><path d="m54.725 463.116h39.777v40.5h-39.777z" fill="#fee8c1"/><path d="m94.502 463.116h39.777v40.5h-39.777z" fill="#966a50"/><path d="m134.279 463.116h39.777v40.5h-39.777z" fill="#fee8c1"/><path d="m174.056 463.116h155.503v40.5h-155.503z" fill="#fcb429"/><path d="m332.308 320.616c0 16.845 13.655 30.5 30.5 30.5 11.997 0 22.377-6.927 27.357-17l1.229-4.693-24.537-39.243h-6.049c-15.912 1.031-28.5 14.263-28.5 30.436z" fill="#ff8370"/><path d="m290.308 503.616h-77v-176.5c0-21.263 17.237-38.5 38.5-38.5 21.263 0 38.5 17.237 38.5 38.5z" fill="#966a50"/></svg>